<svg width="211" height="212" xmlns="http://www.w3.org/2000/svg" xmlns:xlink="http://www.w3.org/1999/xlink"><defs><path id="a" d="M0 .136h144.887v62.778H0z"/></defs><g transform="translate(4 4)" fill="none" fill-rule="evenodd"><ellipse stroke="#262525" stroke-width="7.2" cx="101.51" cy="102.132" rx="101.51" ry="102.132"/><g transform="translate(29 51)"><mask id="b" fill="#fff"><use xlink:href="#a"/></mask><path d="M132.813 43.598H12.073a2.412 2.412 0 01-2.414-2.414 2.412 2.412 0 012.415-2.415h120.739a2.412 2.412 0 012.415 2.415 2.412 2.412 0 01-2.415 2.414m0 9.658H12.073a2.412 2.412 0 01-2.414-2.414 2.412 2.412 0 012.415-2.415h120.739a2.412 2.412 0 012.415 2.415 2.412 2.412 0 01-2.415 2.414M62.784 17.038h19.319a2.413 2.413 0 012.415 2.414 2.413 2.413 0 01-2.415 2.415H62.784a2.412 2.412 0 01-2.414-2.415 2.412 2.412 0 012.414-2.414M137.642.136H7.244C3.25.136 0 3.386 0 7.38v48.29c0 3.994 3.25 7.244 7.244 7.244h130.398c3.994 0 7.245-3.25 7.245-7.243V7.38c0-3.994-3.25-7.244-7.245-7.244" fill="#262525" mask="url(#b)"/></g><path d="M103.073 131.355c-2.133-1.145-3.406-2.6-3.406-3.896 0-1.295 1.274-2.752 3.406-3.897 1.144-.614 1.591-2.072.999-3.256-.593-1.184-2.002-1.65-3.145-1.034-3.822 2.052-5.927 4.959-5.927 8.187 0 3.23 2.105 6.136 5.927 8.185 2.132 1.146 3.406 2.603 3.406 3.898 0 1.296-1.274 2.75-3.406 3.896-1.144.614-1.592 2.07-.999 3.257a2.325 2.325 0 002.074 1.305c.36 0 .73-.087 1.071-.273 3.822-2.05 5.927-4.956 5.927-8.185 0-3.228-2.105-6.136-5.927-8.187m-27 5c-2.133-1.145-3.406-2.6-3.406-3.895s1.274-2.752 3.406-3.898c1.144-.613 1.591-2.07.999-3.255-.593-1.184-2.005-1.652-3.145-1.034-3.822 2.052-5.927 4.959-5.927 8.187 0 3.229 2.105 6.136 5.927 8.185 2.132 1.145 3.406 2.602 3.406 3.898 0 1.295-1.274 2.75-3.406 3.895-1.144.614-1.592 2.07-.999 3.257A2.325 2.325 0 0075.002 153c.36 0 .73-.087 1.071-.273 3.822-2.05 5.927-4.956 5.927-8.185 0-3.228-2.105-6.135-5.927-8.187m53 0c-2.132-1.145-3.406-2.6-3.406-3.895s1.274-2.752 3.406-3.898c1.143-.613 1.592-2.07.999-3.255-.593-1.184-2.004-1.652-3.146-1.034-3.821 2.052-5.926 4.959-5.926 8.187 0 3.229 2.105 6.136 5.926 8.185 2.133 1.145 3.407 2.602 3.407 3.898 0 1.295-1.274 2.75-3.407 3.895-1.143.614-1.59 2.07-.998 3.257a2.325 2.325 0 002.074 1.305c.36 0 .73-.087 1.072-.273 3.822-2.05 5.926-4.956 5.926-8.185 0-3.228-2.104-6.135-5.927-8.187" fill="#262525"/></g></svg>