<svg width="211" height="212" xmlns="http://www.w3.org/2000/svg"><g transform="translate(4 4)" fill="none" fill-rule="evenodd"><path d="M66.396 168.897a2.197 2.197 0 01-2.027-3.045l24.658-58.39H66.398c-.763 0-1.47-.396-1.872-1.043a2.186 2.186 0 01-.097-2.133l33.008-65.825a2.204 2.204 0 011.97-1.213h35.209c.8 0 1.54.435 1.927 1.137.388.7.361 1.555-.068 2.231L110.74 81.131h26.076a2.2 2.2 0 011.994 1.268 2.19 2.19 0 01-.31 2.342l-70.418 83.378a2.207 2.207 0 01-1.686.778" fill="#262525" fill-rule="nonzero"/><ellipse stroke="#262525" stroke-width="7.2" cx="101.51" cy="102.132" rx="101.51" ry="102.132"/></g></svg>