<svg width="211" height="212" xmlns="http://www.w3.org/2000/svg"><g transform="translate(4 4)" fill="none" fill-rule="evenodd"><ellipse stroke="#262525" stroke-width="7.2" cx="101.51" cy="102.132" rx="101.51" ry="102.132"/><g fill="#262525" fill-rule="nonzero"><path d="M50.053 140.215a10.417 10.417 0 000 14.735 10.385 10.385 0 007.37 3.05c2.667 0 5.334-1.014 7.369-3.05L99 120.728 84.26 106l-34.207 34.215zm85.334-63.283l14.843-7.672L158 54.242 150.755 47l-15.015 7.775-7.687 14.824L110 87.667 117.32 95z"/><path d="M138.582 116.514l-1.402-.14c-2.539 0-4.946.521-7.194 1.354L87.272 75.007c.833-2.248 1.353-4.655 1.353-7.194l-.139-1.402C87.751 55.581 78.83 47 67.812 47c-3.205 0-6.209.784-8.921 2.081l13.826 13.827c.729.728 1.228 1.588 1.561 2.497.909 2.456.416 5.328-1.56 7.312a6.918 6.918 0 01-4.906 2.033c-.818 0-1.63-.18-2.407-.472-.909-.347-1.77-.832-2.498-1.568L49.081 58.89C47.784 61.604 47 64.608 47 67.814c0 11.016 8.582 19.938 19.411 20.673l1.402.139c2.539 0 4.946-.52 7.194-1.346l42.707 42.714c-.819 2.248-1.339 4.655-1.339 7.194l.146 1.402c.721 10.836 9.65 19.411 20.667 19.411 3.205 0 6.216-.77 8.921-2.081l-13.826-13.827c-.722-.721-1.228-1.588-1.575-2.49-.909-2.456-.416-5.335 1.575-7.319a6.895 6.895 0 014.905-2.033c.818 0 1.623.174 2.414.472.909.34 1.776.826 2.49 1.561l13.827 13.826c1.304-2.72 2.081-5.716 2.081-8.921-.007-11.017-8.589-19.94-19.418-20.674z"/></g></g></svg>